<svg width="51" height="51" viewBox="0 0 51 51" fill="none" xmlns="http://www.w3.org/2000/svg">
<g id="videocam">
<path id="Vector" d="M14.95 34C14.43 34 13.975 33.8406 13.585 33.5219C13.195 33.2031 13 32.8313 13 32.4062V18.5938C13 18.1688 13.195 17.7969 13.585 17.4781C13.975 17.1594 14.43 17 14.95 17H31.85C32.37 17 32.825 17.1594 33.215 17.4781C33.605 17.7969 33.8 18.1688 33.8 18.5938V24.3047L39 20.0547V30.9453L33.8 26.6953V32.4062C33.8 32.8313 33.605 33.2031 33.215 33.5219C32.825 33.8406 32.37 34 31.85 34H14.95Z" fill="white"/>
</g>
</svg>
