<svg width="50" height="50" viewBox="0 0 50 50" fill="none" xmlns="http://www.w3.org/2000/svg">
<path d="M29.8 35.6C29.14 35.6 28.575 35.365 28.105 34.895C27.635 34.425 27.4 33.86 27.4 33.2V28.4C27.4 27.74 27.635 27.175 28.105 26.705C28.575 26.235 29.14 26 29.8 26H34.6C35.26 26 35.825 26.235 36.295 26.705C36.765 27.175 37 27.74 37 28.4V33.2C37 33.86 36.765 34.425 36.295 34.895C35.825 35.365 35.26 35.6 34.6 35.6H29.8ZM29.2 33.8H35.2V27.8H29.2V33.8ZM13 31.7V29.9H23.8V31.7H13ZM29.8 23.6C29.14 23.6 28.575 23.365 28.105 22.895C27.635 22.425 27.4 21.86 27.4 21.2V16.4C27.4 15.74 27.635 15.175 28.105 14.705C28.575 14.235 29.14 14 29.8 14H34.6C35.26 14 35.825 14.235 36.295 14.705C36.765 15.175 37 15.74 37 16.4V21.2C37 21.86 36.765 22.425 36.295 22.895C35.825 23.365 35.26 23.6 34.6 23.6H29.8ZM29.2 21.8H35.2V15.8H29.2V21.8ZM13 19.7V17.9H23.8V19.7H13Z" fill="#D9D9D9"/>
</svg>
