<svg version="1.1" xmlns="http://www.w3.org/2000/svg" xmlns:xlink="http://www.w3.org/1999/xlink" width="50" height="50" viewBox="0,0,256,256"><g fill="#858585" fill-rule="nonzero" stroke="none" stroke-width="1" stroke-linecap="butt" stroke-linejoin="miter" stroke-miterlimit="10" stroke-dasharray="" stroke-dashoffset="0" font-family="none" font-weight="none" font-size="none" text-anchor="none" style="mix-blend-mode: normal"><g transform="scale(5.12,5.12)"><path d="M22.24,37l-0.6,-3.78c-0.38,-0.14 -0.78,-0.33 -1.2,-0.57c-0.42,-0.24 -0.79,-0.49 -1.11,-0.75l-3.54,1.62l-2.79,-4.92l3.24,-2.37c-0.04,-0.18 -0.065,-0.385 -0.075,-0.615c-0.01,-0.23 -0.015,-0.435 -0.015,-0.615c0,-0.18 0.005,-0.385 0.015,-0.615c0.01,-0.23 0.035,-0.435 0.075,-0.615l-3.24,-2.37l2.79,-4.92l3.54,1.62c0.32,-0.26 0.69,-0.51 1.11,-0.75c0.42,-0.24 0.82,-0.42 1.2,-0.54l0.6,-3.81h5.52l0.6,3.78c0.38,0.14 0.785,0.325 1.215,0.555c0.43,0.23 0.795,0.485 1.095,0.765l3.54,-1.62l2.79,4.92l-3.24,2.31c0.04,0.2 0.065,0.415 0.075,0.645c0.01,0.23 0.015,0.445 0.015,0.645c0,0.2 -0.005,0.41 -0.015,0.63c-0.01,0.22 -0.035,0.43 -0.075,0.63l3.24,2.34l-2.79,4.92l-3.54,-1.62c-0.32,0.26 -0.685,0.515 -1.095,0.765c-0.41,0.25 -0.815,0.435 -1.215,0.555l-0.6,3.78zM25,28.9c1.08,0 2,-0.38 2.76,-1.14c0.76,-0.76 1.14,-1.68 1.14,-2.76c0,-1.08 -0.38,-2 -1.14,-2.76c-0.76,-0.76 -1.68,-1.14 -2.76,-1.14c-1.08,0 -2,0.38 -2.76,1.14c-0.76,0.76 -1.14,1.68 -1.14,2.76c0,1.08 0.38,2 1.14,2.76c0.76,0.76 1.68,1.14 2.76,1.14zM25,27.1c-0.58,0 -1.075,-0.205 -1.485,-0.615c-0.41,-0.41 -0.615,-0.905 -0.615,-1.485c0,-0.58 0.205,-1.075 0.615,-1.485c0.41,-0.41 0.905,-0.615 1.485,-0.615c0.58,0 1.075,0.205 1.485,0.615c0.41,0.41 0.615,0.905 0.615,1.485c0,0.58 -0.205,1.075 -0.615,1.485c-0.41,0.41 -0.905,0.615 -1.485,0.615zM23.68,35.2h2.64l0.42,-3.36c0.66,-0.16 1.285,-0.41 1.875,-0.75c0.59,-0.34 1.125,-0.75 1.605,-1.23l3.18,1.38l1.2,-2.16l-2.82,-2.07c0.08,-0.34 0.145,-0.675 0.195,-1.005c0.05,-0.33 0.075,-0.665 0.075,-1.005c0,-0.34 -0.02,-0.675 -0.06,-1.005c-0.04,-0.33 -0.11,-0.665 -0.21,-1.005l2.82,-2.07l-1.2,-2.16l-3.18,1.38c-0.46,-0.52 -0.98,-0.955 -1.56,-1.305c-0.58,-0.35 -1.22,-0.575 -1.92,-0.675l-0.42,-3.36h-2.64l-0.42,3.36c-0.68,0.14 -1.315,0.38 -1.905,0.72c-0.59,0.34 -1.115,0.76 -1.575,1.26l-3.18,-1.38l-1.2,2.16l2.82,2.07c-0.08,0.34 -0.145,0.675 -0.195,1.005c-0.05,0.33 -0.075,0.665 -0.075,1.005c0,0.34 0.025,0.675 0.075,1.005c0.05,0.33 0.115,0.665 0.195,1.005l-2.82,2.07l1.2,2.16l3.18,-1.38c0.48,0.48 1.015,0.89 1.605,1.23c0.59,0.34 1.215,0.59 1.875,0.75z"></path></g></g></svg>