<svg width="26" height="26" viewBox="0 0 26 26" fill="none" xmlns="http://www.w3.org/2000/svg">
<g id="search_chat">
<path id="Vector" d="M15.94 16.86L16.84 15.96L13.66 12.76V8.74H12.46V13.24L15.94 16.86ZM13 21C11.9067 21 10.8733 20.79 9.9 20.37C8.92667 19.95 8.07667 19.3767 7.35 18.65C6.62333 17.9233 6.05 17.0733 5.63 16.1C5.21 15.1267 5 14.0933 5 13C5 11.9067 5.21 10.8733 5.63 9.9C6.05 8.92667 6.62333 8.07667 7.35 7.35C8.07667 6.62333 8.92667 6.05 9.9 5.63C10.8733 5.21 11.9067 5 13 5C14.0933 5 15.1267 5.21 16.1 5.63C17.0733 6.05 17.9233 6.62333 18.65 7.35C19.3767 8.07667 19.95 8.92667 20.37 9.9C20.79 10.8733 21 11.9067 21 13C21 14.0933 20.79 15.1267 20.37 16.1C19.95 17.0733 19.3767 17.9233 18.65 18.65C17.9233 19.3767 17.0733 19.95 16.1 20.37C15.1267 20.79 14.0933 21 13 21ZM13 19.8C14.8667 19.8 16.4667 19.1333 17.8 17.8C19.1333 16.4667 19.8 14.8667 19.8 13C19.8 11.1333 19.1333 9.53333 17.8 8.2C16.4667 6.86667 14.8667 6.2 13 6.2C11.1333 6.2 9.53333 6.86667 8.2 8.2C6.86667 9.53333 6.2 11.1333 6.2 13C6.2 14.8667 6.86667 16.4667 8.2 17.8C9.53333 19.1333 11.1333 19.8 13 19.8Z" fill="white"/>
</g>
</svg>
