<svg width="24" height="24" viewBox="0 0 24 24" fill="none" xmlns="http://www.w3.org/2000/svg">
<path d="M19.8536 6.14645L19.5 6.5V6.5L19.8536 6.14645ZM19.8536 6.85355L20.2071 7.20711V7.20711L19.8536 6.85355ZM19.1464 6.14645L19.5 6.5V6.5L19.1464 6.14645ZM12.5 12.7929L12.1464 13.1464L12.5 13.5L12.8536 13.1464L12.5 12.7929ZM5.85355 6.14645L5.5 6.5L5.5 6.5L5.85355 6.14645ZM5.14645 6.14645L5.5 6.5L5.5 6.5L5.14645 6.14645ZM5.14645 6.85355L4.79289 7.20711L4.79289 7.20711L5.14645 6.85355ZM11.7929 13.5L12.1464 13.8536L12.5 13.5L12.1464 13.1464L11.7929 13.5ZM5.14645 20.1464L5.5 20.5H5.5L5.14645 20.1464ZM5.14645 20.8536L5.5 20.5H5.5L5.14645 20.8536ZM5.85355 20.8536L6.20711 21.2071H6.20711L5.85355 20.8536ZM12.5 14.2071L12.8536 13.8536L12.5 13.5L12.1464 13.8536L12.5 14.2071ZM19.1464 20.8536L18.7929 21.2071L18.7929 21.2071L19.1464 20.8536ZM19.8536 20.8536L20.2071 21.2071L20.2071 21.2071L19.8536 20.8536ZM19.8536 20.1464L20.2071 19.7929L19.8536 20.1464ZM13.2071 13.5L12.8536 13.1464L12.5 13.5L12.8536 13.8536L13.2071 13.5ZM19.5 6.5V6.5L20.2071 7.20711C20.5976 6.81658 20.5976 6.18342 20.2071 5.79289L19.5 6.5ZM19.5 6.5H19.5L20.2071 5.79289C19.8166 5.40237 19.1834 5.40237 18.7929 5.79289L19.5 6.5ZM12.8536 13.1464L19.5 6.5L18.7929 5.79289L12.1464 12.4393L12.8536 13.1464ZM12.8536 12.4393L6.20711 5.79289L5.5 6.5L12.1464 13.1464L12.8536 12.4393ZM6.20711 5.79289C5.81658 5.40237 5.18342 5.40237 4.79289 5.79289L5.5 6.5H5.5L6.20711 5.79289ZM4.79289 5.79289C4.40237 6.18342 4.40237 6.81658 4.79289 7.20711L5.5 6.5L5.5 6.5L4.79289 5.79289ZM4.79289 7.20711L11.4393 13.8536L12.1464 13.1464L5.5 6.5L4.79289 7.20711ZM5.5 20.5L12.1464 13.8536L11.4393 13.1464L4.79289 19.7929L5.5 20.5ZM5.5 20.5V20.5L4.79289 19.7929C4.40237 20.1834 4.40237 20.8166 4.79289 21.2071L5.5 20.5ZM5.5 20.5H5.5L4.79289 21.2071C5.18342 21.5976 5.81658 21.5976 6.20711 21.2071L5.5 20.5ZM12.1464 13.8536L5.5 20.5L6.20711 21.2071L12.8536 14.5607L12.1464 13.8536ZM12.1464 14.5607L18.7929 21.2071L19.5 20.5L12.8536 13.8536L12.1464 14.5607ZM18.7929 21.2071C19.1834 21.5976 19.8166 21.5976 20.2071 21.2071L19.5 20.5H19.5L18.7929 21.2071ZM20.2071 21.2071C20.5976 20.8166 20.5976 20.1834 20.2071 19.7929L19.5 20.5V20.5L20.2071 21.2071ZM20.2071 19.7929L13.5607 13.1464L12.8536 13.8536L19.5 20.5L20.2071 19.7929ZM19.5 6.5L12.8536 13.1464L13.5607 13.8536L20.2071 7.20711L19.5 6.5Z" fill="black"/>
</svg>
