<svg width="50" height="50" viewBox="0 0 50 50" fill="none" xmlns="http://www.w3.org/2000/svg">
<path d="M21 14.7163V13H29V14.7163H21ZM24 27.503H26V20.9237H24V27.503ZM25 37C23.3556 37 21.8056 36.7282 20.35 36.1847C18.8944 35.6412 17.6222 34.9023 16.5333 33.9678C15.4444 33.0334 14.5833 31.9416 13.95 30.6925C13.3167 29.4434 13 28.1132 13 26.702C13 25.2908 13.3167 23.9607 13.95 22.7116C14.5833 21.4625 15.4444 20.3707 16.5333 19.4362C17.6222 18.5018 18.8944 17.7628 20.35 17.2193C21.8056 16.6758 23.3556 16.4041 25 16.4041C26.4889 16.4041 27.8889 16.6186 29.2 17.0477C30.5111 17.4768 31.6778 18.0727 32.7 18.8355L34.4 17.3766L35.8 18.5781L34.1 20.0369C34.9 20.7998 35.5833 21.7247 36.15 22.8117C36.7167 23.8987 37 25.1955 37 26.702C37 28.1132 36.6833 29.4434 36.05 30.6925C35.4167 31.9416 34.5556 33.0334 33.4667 33.9678C32.3778 34.9023 31.1056 35.6412 29.65 36.1847C28.1944 36.7282 26.6444 37 25 37ZM25 35.2837C27.7778 35.2837 30.1389 34.4493 32.0833 32.7807C34.0278 31.112 35 29.0858 35 26.702C35 24.3182 34.0278 22.292 32.0833 20.6234C30.1389 18.9547 27.7778 18.1204 25 18.1204C22.2222 18.1204 19.8611 18.9547 17.9167 20.6234C15.9722 22.292 15 24.3182 15 26.702C15 29.0858 15.9722 31.112 17.9167 32.7807C19.8611 34.4493 22.2222 35.2837 25 35.2837Z" fill="#D9D9D9"/>
</svg>
