<svg version="1.1" xmlns="http://www.w3.org/2000/svg" xmlns:xlink="http://www.w3.org/1999/xlink" width="50" height="50" viewBox="0,0,256,256"><g fill="#858585" fill-rule="nonzero" stroke="none" stroke-width="1" stroke-linecap="butt" stroke-linejoin="miter" stroke-miterlimit="10" stroke-dasharray="" stroke-dashoffset="0" font-family="none" font-weight="none" font-size="none" text-anchor="none" style="mix-blend-mode: normal"><g transform="scale(5.12,5.12)"><path d="M30.3,37h-15.3c-0.5333,0 -1,-0.2 -1.4,-0.6c-0.4,-0.4 -0.6,-0.8667 -0.6,-1.4v-20c0,-0.5333 0.2,-1 0.6,-1.4c0.4,-0.4 0.8667,-0.6 1.4,-0.6h20c0.5333,0 1,0.2 1.4,0.6c0.4,0.4 0.6,0.8667 0.6,1.4v15.3zM29.3,35v-2.7667c0,-0.7777 0.2944,-1.4611 0.8833,-2.05c0.5889,-0.5889 1.2723,-0.8833 2.05,-0.8833h2.7667v-14.3h-20v20zM24,30.3h2v-8.6h4.3v-2h-10.6v2h4.3z"></path></g></g></svg>