<svg width="26" height="26" viewBox="0 0 26 26" fill="none" xmlns="http://www.w3.org/2000/svg">
<g id="settings">
<path id="Vector" d="M11.16 21.0002L10.76 18.4802C10.5067 18.3868 10.24 18.2602 9.96 18.1002C9.68 17.9402 9.43333 17.7735 9.22 17.6002L6.86 18.6802L5 15.4002L7.16 13.8202C7.13333 13.7002 7.11667 13.5635 7.11 13.4102C7.10333 13.2568 7.1 13.1202 7.1 13.0002C7.1 12.8802 7.10333 12.7435 7.11 12.5902C7.11667 12.4368 7.13333 12.3002 7.16 12.1802L5 10.6002L6.86 7.32018L9.22 8.40018C9.43333 8.22685 9.68 8.06018 9.96 7.90018C10.24 7.74018 10.5067 7.62018 10.76 7.54018L11.16 5.00018H14.84L15.24 7.52018C15.4933 7.61352 15.7633 7.73685 16.05 7.89018C16.3367 8.04352 16.58 8.21352 16.78 8.40018L19.14 7.32018L21 10.6002L18.84 12.1402C18.8667 12.2735 18.8833 12.4168 18.89 12.5702C18.8967 12.7235 18.9 12.8668 18.9 13.0002C18.9 13.1335 18.8967 13.2735 18.89 13.4202C18.8833 13.5668 18.8667 13.7069 18.84 13.8402L21 15.4002L19.14 18.6802L16.78 17.6002C16.5667 17.7735 16.3233 17.9435 16.05 18.1102C15.7767 18.2768 15.5067 18.4002 15.24 18.4802L14.84 21.0002H11.16ZM13 15.6002C13.72 15.6002 14.3333 15.3468 14.84 14.8402C15.3467 14.3335 15.6 13.7202 15.6 13.0002C15.6 12.2802 15.3467 11.6668 14.84 11.1602C14.3333 10.6535 13.72 10.4002 13 10.4002C12.28 10.4002 11.6667 10.6535 11.16 11.1602C10.6533 11.6668 10.4 12.2802 10.4 13.0002C10.4 13.7202 10.6533 14.3335 11.16 14.8402C11.6667 15.3468 12.28 15.6002 13 15.6002ZM13 14.4002C12.6133 14.4002 12.2833 14.2635 12.01 13.9902C11.7367 13.7168 11.6 13.3868 11.6 13.0002C11.6 12.6135 11.7367 12.2835 12.01 12.0102C12.2833 11.7368 12.6133 11.6002 13 11.6002C13.3867 11.6002 13.7167 11.7368 13.99 12.0102C14.2633 12.2835 14.4 12.6135 14.4 13.0002C14.4 13.3868 14.2633 13.7168 13.99 13.9902C13.7167 14.2635 13.3867 14.4002 13 14.4002ZM12.12 19.8002H13.88L14.16 17.5602C14.6 17.4535 15.0167 17.2868 15.41 17.0602C15.8033 16.8335 16.16 16.5602 16.48 16.2402L18.6 17.1602L19.4 15.7202L17.52 14.3402C17.5733 14.1135 17.6167 13.8902 17.65 13.6702C17.6833 13.4502 17.7 13.2268 17.7 13.0002C17.7 12.7735 17.6867 12.5502 17.66 12.3302C17.6333 12.1102 17.5867 11.8868 17.52 11.6602L19.4 10.2802L18.6 8.84018L16.48 9.76018C16.1733 9.41352 15.8267 9.12352 15.44 8.89018C15.0533 8.65685 14.6267 8.50685 14.16 8.44018L13.88 6.20018H12.12L11.84 8.44018C11.3867 8.53352 10.9633 8.69352 10.57 8.92018C10.1767 9.14685 9.82667 9.42685 9.52 9.76018L7.4 8.84018L6.6 10.2802L8.48 11.6602C8.42667 11.8868 8.38333 12.1102 8.35 12.3302C8.31667 12.5502 8.3 12.7735 8.3 13.0002C8.3 13.2268 8.31667 13.4502 8.35 13.6702C8.38333 13.8902 8.42667 14.1135 8.48 14.3402L6.6 15.7202L7.4 17.1602L9.52 16.2402C9.84 16.5602 10.1967 16.8335 10.59 17.0602C10.9833 17.2868 11.4 17.4535 11.84 17.5602L12.12 19.8002Z" fill="white"/>
</g>
</svg>
