<svg width="26" height="26" viewBox="0 0 26 26" fill="none" xmlns="http://www.w3.org/2000/svg">
<g id="settings">
<path id="Vector" d="M11.16 21L10.76 18.48C10.5067 18.3867 10.24 18.26 9.96 18.1C9.68 17.94 9.43333 17.7733 9.22 17.6L6.86 18.68L5 15.4L7.16 13.82C7.13333 13.7 7.11667 13.5633 7.11 13.41C7.10333 13.2567 7.1 13.12 7.1 13C7.1 12.88 7.10333 12.7433 7.11 12.59C7.11667 12.4367 7.13333 12.3 7.16 12.18L5 10.6L6.86 7.32L9.22 8.4C9.43333 8.22667 9.68 8.06 9.96 7.9C10.24 7.74 10.5067 7.62 10.76 7.54L11.16 5H14.84L15.24 7.52C15.4933 7.61333 15.7633 7.73667 16.05 7.89C16.3367 8.04333 16.58 8.21333 16.78 8.4L19.14 7.32L21 10.6L18.84 12.14C18.8667 12.2733 18.8833 12.4167 18.89 12.57C18.8967 12.7233 18.9 12.8667 18.9 13C18.9 13.1333 18.8967 13.2733 18.89 13.42C18.8833 13.5667 18.8667 13.7067 18.84 13.84L21 15.4L19.14 18.68L16.78 17.6C16.5667 17.7733 16.3233 17.9433 16.05 18.11C15.7767 18.2767 15.5067 18.4 15.24 18.48L14.84 21H11.16ZM13 15.6C13.72 15.6 14.3333 15.3467 14.84 14.84C15.3467 14.3333 15.6 13.72 15.6 13C15.6 12.28 15.3467 11.6667 14.84 11.16C14.3333 10.6533 13.72 10.4 13 10.4C12.28 10.4 11.6667 10.6533 11.16 11.16C10.6533 11.6667 10.4 12.28 10.4 13C10.4 13.72 10.6533 14.3333 11.16 14.84C11.6667 15.3467 12.28 15.6 13 15.6ZM13 14.4C12.6133 14.4 12.2833 14.2633 12.01 13.99C11.7367 13.7167 11.6 13.3867 11.6 13C11.6 12.6133 11.7367 12.2833 12.01 12.01C12.2833 11.7367 12.6133 11.6 13 11.6C13.3867 11.6 13.7167 11.7367 13.99 12.01C14.2633 12.2833 14.4 12.6133 14.4 13C14.4 13.3867 14.2633 13.7167 13.99 13.99C13.7167 14.2633 13.3867 14.4 13 14.4ZM12.12 19.8H13.88L14.16 17.56C14.6 17.4533 15.0167 17.2867 15.41 17.06C15.8033 16.8333 16.16 16.56 16.48 16.24L18.6 17.16L19.4 15.72L17.52 14.34C17.5733 14.1133 17.6167 13.89 17.65 13.67C17.6833 13.45 17.7 13.2267 17.7 13C17.7 12.7733 17.6867 12.55 17.66 12.33C17.6333 12.11 17.5867 11.8867 17.52 11.66L19.4 10.28L18.6 8.84L16.48 9.76C16.1733 9.41333 15.8267 9.12333 15.44 8.89C15.0533 8.65667 14.6267 8.50667 14.16 8.44L13.88 6.2H12.12L11.84 8.44C11.3867 8.53333 10.9633 8.69333 10.57 8.92C10.1767 9.14667 9.82667 9.42667 9.52 9.76L7.4 8.84L6.6 10.28L8.48 11.66C8.42667 11.8867 8.38333 12.11 8.35 12.33C8.31667 12.55 8.3 12.7733 8.3 13C8.3 13.2267 8.31667 13.45 8.35 13.67C8.38333 13.89 8.42667 14.1133 8.48 14.34L6.6 15.72L7.4 17.16L9.52 16.24C9.84 16.56 10.1967 16.8333 10.59 17.06C10.9833 17.2867 11.4 17.4533 11.84 17.56L12.12 19.8Z" fill="#3C3C3C"/>
</g>
</svg>
