<svg width="26" height="26" viewBox="0 0 26 26" fill="none" xmlns="http://www.w3.org/2000/svg">
<g id="person_add">
<path id="Vector" d="M18.6818 13.6591V10.7045H15.7273V9.34091H18.6818V6.38636H20.0455V9.34091H23V10.7045H20.0455V13.6591H18.6818ZM10.2727 11.8182C9.27273 11.8182 8.45455 11.5 7.81818 10.8636C7.18182 10.2273 6.86364 9.40909 6.86364 8.40909C6.86364 7.40909 7.18182 6.59091 7.81818 5.95455C8.45455 5.31818 9.27273 5 10.2727 5C11.2727 5 12.0909 5.31818 12.7273 5.95455C13.3636 6.59091 13.6818 7.40909 13.6818 8.40909C13.6818 9.40909 13.3636 10.2273 12.7273 10.8636C12.0909 11.5 11.2727 11.8182 10.2727 11.8182ZM3 20.0227V16.9773C3 16.447 3.13258 15.9659 3.39773 15.5341C3.66288 15.1023 4.04545 14.7803 4.54545 14.5682C5.68182 14.0682 6.69195 13.7159 7.57586 13.5114C8.45979 13.3068 9.35752 13.2045 10.269 13.2045C11.1806 13.2045 12.0758 13.3068 12.9545 13.5114C13.8333 13.7159 14.8409 14.0682 15.9773 14.5682C16.4773 14.7955 16.8636 15.1212 17.1364 15.5455C17.4091 15.9697 17.5455 16.447 17.5455 16.9773V20.0227H3ZM4.36364 18.6591H16.1818V16.9773C16.1818 16.7348 16.1136 16.5038 15.9773 16.2841C15.8409 16.0644 15.6591 15.9015 15.4318 15.7955C14.3561 15.2955 13.447 14.9659 12.7045 14.8068C11.9621 14.6477 11.1515 14.5682 10.2727 14.5682C9.39394 14.5682 8.57955 14.6477 7.82955 14.8068C7.07955 14.9659 6.16667 15.2955 5.09091 15.7955C4.86364 15.9015 4.68561 16.0644 4.55682 16.2841C4.42803 16.5038 4.36364 16.7348 4.36364 16.9773V18.6591ZM10.2727 10.4545C10.8636 10.4545 11.3523 10.2614 11.7386 9.875C12.125 9.48864 12.3182 9 12.3182 8.40909C12.3182 7.81818 12.125 7.32955 11.7386 6.94318C11.3523 6.55682 10.8636 6.36364 10.2727 6.36364C9.68182 6.36364 9.19318 6.55682 8.80682 6.94318C8.42045 7.32955 8.22727 7.81818 8.22727 8.40909C8.22727 9 8.42045 9.48864 8.80682 9.875C9.19318 10.2614 9.68182 10.4545 10.2727 10.4545Z" fill="#3C3C3C"/>
</g>
</svg>
