<svg width="50" height="50" viewBox="0 0 50 50" fill="none" xmlns="http://www.w3.org/2000/svg">
<path d="M20.3846 20.0876H22.2308V33.1148H20.3846V20.0876Z" fill="#D9D9D9"/>
<path d="M24.0769 20.0876H25.9231V33.1148H24.0769V20.0876Z" fill="#D9D9D9"/>
<path d="M27.7693 20.0876H29.6154V33.1148H27.7693V20.0876Z" fill="#D9D9D9"/>
<path d="M13 15.2024H37V16.8308H13V15.2024Z" fill="#D9D9D9"/>
<path d="M29.5539 16.0167H27.8308V14.3883C27.8308 13.8998 27.4 13.5198 26.8462 13.5198H23.1539C22.6 13.5198 22.1692 13.8998 22.1692 14.3883V16.0167H20.4462V14.3883C20.4462 13.0856 21.6769 12 23.1539 12H26.8462C28.3231 12 29.5539 13.0856 29.5539 14.3883V16.0167Z" fill="#D9D9D9"/>
<path d="M30.5387 38H19.4618C17.9849 38 16.6926 36.9144 16.5695 35.6117L14.8464 16.071L16.6926 15.9624L18.4157 35.5031C18.4772 35.9916 18.9695 36.3716 19.4618 36.3716H30.5387C31.0926 36.3716 31.5849 35.9374 31.5849 35.5031L33.308 15.9624L35.1541 16.071L33.431 35.6117C33.308 36.9687 32.0157 38 30.5387 38Z" fill="#D9D9D9"/>
</svg>
