<svg width="26" height="26" viewBox="0 0 26 26" fill="none" xmlns="http://www.w3.org/2000/svg">
<g id="add_image">
<path id="Vector" d="M4.875 22.75C4.44167 22.75 4.0625 22.5875 3.7375 22.2625C3.4125 21.9375 3.25 21.5583 3.25 21.125V4.875C3.25 4.44167 3.4125 4.0625 3.7375 3.7375C4.0625 3.4125 4.44167 3.25 4.875 3.25H21.125C21.5583 3.25 21.9375 3.4125 22.2625 3.7375C22.5875 4.0625 22.75 4.44167 22.75 4.875V21.125C22.75 21.5583 22.5875 21.9375 22.2625 22.2625C21.9375 22.5875 21.5583 22.75 21.125 22.75H4.875ZM4.875 21.125H21.125V4.875H4.875V21.125ZM6.39167 18.4979H19.6354L15.6542 13.1896L12.0792 17.8208L9.56042 14.3813L6.39167 18.4979Z" fill="#3C3C3C"/>
</g>
</svg>
