<svg width="26" height="26" viewBox="0 0 26 26" fill="none" xmlns="http://www.w3.org/2000/svg">
<g id="notifications">
<path id="Vector" d="M6 18.8751V17.5626H7.75V10.9126C7.75 9.68762 8.11094 8.59023 8.83281 7.62043C9.55469 6.65064 10.5062 6.04179 11.6875 5.79387V5.31262C11.6875 4.94804 11.8151 4.63814 12.0703 4.38293C12.3255 4.12773 12.6354 4.00012 13 4.00012C13.3646 4.00012 13.6745 4.12773 13.9297 4.38293C14.1849 4.63814 14.3125 4.94804 14.3125 5.31262V5.79387C15.4937 6.04179 16.4453 6.65064 17.1672 7.62043C17.8891 8.59023 18.25 9.68762 18.25 10.9126V17.5626H20V18.8751H6ZM13 21.5001C12.5187 21.5001 12.1068 21.3288 11.7641 20.9861C11.4214 20.6433 11.25 20.2314 11.25 19.7501H14.75C14.75 20.2314 14.5786 20.6433 14.2359 20.9861C13.8932 21.3288 13.4812 21.5001 13 21.5001ZM9.0625 17.5626H16.9375V10.9126C16.9375 9.81887 16.5547 8.88918 15.7891 8.12356C15.0234 7.35793 14.0938 6.97512 13 6.97512C11.9062 6.97512 10.9766 7.35793 10.2109 8.12356C9.44531 8.88918 9.0625 9.81887 9.0625 10.9126V17.5626Z" fill="#3C3C3C"/>
</g>
</svg>
