<svg width="50" height="50" viewBox="0 0 50 50" fill="none" xmlns="http://www.w3.org/2000/svg">
<g id="mood">
<path id="Vector" d="M30.975 23.2624C31.5375 23.2624 32.0156 23.0655 32.4094 22.6718C32.8031 22.278 33 21.7999 33 21.2374C33 20.6749 32.8031 20.1968 32.4094 19.803C32.0156 19.4093 31.5375 19.2124 30.975 19.2124C30.4125 19.2124 29.9344 19.4093 29.5406 19.803C29.1469 20.1968 28.95 20.6749 28.95 21.2374C28.95 21.7999 29.1469 22.278 29.5406 22.6718C29.9344 23.0655 30.4125 23.2624 30.975 23.2624ZM20.025 23.2624C20.5875 23.2624 21.0656 23.0655 21.4594 22.6718C21.8531 22.278 22.05 21.7999 22.05 21.2374C22.05 20.6749 21.8531 20.1968 21.4594 19.803C21.0656 19.4093 20.5875 19.2124 20.025 19.2124C19.4625 19.2124 18.9844 19.4093 18.5906 19.803C18.1969 20.1968 18 20.6749 18 21.2374C18 21.7999 18.1969 22.278 18.5906 22.6718C18.9844 23.0655 19.4625 23.2624 20.025 23.2624ZM25.5 33.4624C27.15 33.4624 28.6687 33.0186 30.0562 32.1311C31.4438 31.2436 32.45 30.0374 33.075 28.5124H17.925C18.575 30.0374 19.5875 31.2436 20.9625 32.1311C22.3375 33.0186 23.85 33.4624 25.5 33.4624ZM25.5 40.2499C23.425 40.2499 21.475 39.8561 19.65 39.0686C17.825 38.2811 16.2375 37.2124 14.8875 35.8624C13.5375 34.5124 12.4688 32.9249 11.6812 31.0999C10.8938 29.2749 10.5 27.3249 10.5 25.2499C10.5 23.1749 10.8938 21.2249 11.6812 19.3999C12.4688 17.5749 13.5375 15.9874 14.8875 14.6374C16.2375 13.2874 17.825 12.2186 19.65 11.4311C21.475 10.6436 23.425 10.2499 25.5 10.2499C27.575 10.2499 29.525 10.6436 31.35 11.4311C33.175 12.2186 34.7625 13.2874 36.1125 14.6374C37.4625 15.9874 38.5312 17.5749 39.3188 19.3999C40.1062 21.2249 40.5 23.1749 40.5 25.2499C40.5 27.3249 40.1062 29.2749 39.3188 31.0999C38.5312 32.9249 37.4625 34.5124 36.1125 35.8624C34.7625 37.2124 33.175 38.2811 31.35 39.0686C29.525 39.8561 27.575 40.2499 25.5 40.2499Z" fill="white"/>
</g>
</svg>
