<svg width="26" height="26" viewBox="0 0 26 26" fill="none" xmlns="http://www.w3.org/2000/svg">
<g id="photo_camera">
<path id="Vector" d="M12.9865 18.7688C14.2956 18.7688 15.3924 18.3264 16.2772 17.4417C17.1619 16.5569 17.6042 15.4601 17.6042 14.151C17.6042 12.842 17.1619 11.7497 16.2772 10.874C15.3924 9.99826 14.2956 9.56042 12.9865 9.56042C11.6775 9.56042 10.5852 9.99826 9.70946 10.874C8.83376 11.7497 8.39591 12.842 8.39591 14.151C8.39591 15.4601 8.83376 16.5569 9.70946 17.4417C10.5852 18.3264 11.6775 18.7688 12.9865 18.7688ZM12.9865 17.1438C12.1289 17.1438 11.4202 16.8594 10.8605 16.2906C10.3008 15.7219 10.0209 15.0087 10.0209 14.151C10.0209 13.2934 10.3008 12.5847 10.8605 12.025C11.4202 11.4653 12.1289 11.1854 12.9865 11.1854C13.8442 11.1854 14.5574 11.4653 15.1261 12.025C15.6949 12.5847 15.9792 13.2934 15.9792 14.151C15.9792 15.0087 15.6949 15.7219 15.1261 16.2906C14.5574 16.8594 13.8442 17.1438 12.9865 17.1438ZM3.79175 22.75C3.35841 22.75 2.97925 22.5875 2.65425 22.2625C2.32925 21.9375 2.16675 21.5583 2.16675 21.125V7.23125C2.16675 6.81597 2.32925 6.44132 2.65425 6.10729C2.97925 5.77326 3.35841 5.60625 3.79175 5.60625H7.773L9.75008 3.25H16.2501L18.2272 5.60625H22.2084C22.6237 5.60625 22.9983 5.77326 23.3324 6.10729C23.6664 6.44132 23.8334 6.81597 23.8334 7.23125V21.125C23.8334 21.5583 23.6664 21.9375 23.3324 22.2625C22.9983 22.5875 22.6237 22.75 22.2084 22.75H3.79175ZM3.79175 21.125H22.2084V7.23125H17.4688L15.4917 4.875H10.5084L8.53133 7.23125H3.79175V21.125Z" fill="#3C3C3C"/>
</g>
</svg>
