<svg version="1.1" xmlns="http://www.w3.org/2000/svg" xmlns:xlink="http://www.w3.org/1999/xlink" width="50" height="50" viewBox="0,0,256,256"><g fill="#858585" fill-rule="nonzero" stroke="none" stroke-width="1" stroke-linecap="butt" stroke-linejoin="miter" stroke-miterlimit="10" stroke-dasharray="" stroke-dashoffset="0" font-family="none" font-weight="none" font-size="none" text-anchor="none" style="mix-blend-mode: normal"><g transform="scale(5.12,5.12)"><path d="M21,14.7163v-1.7163h8v1.7163zM24,27.503h2v-6.5793h-2zM25,37c-1.6444,0 -3.1944,-0.2718 -4.65,-0.8153c-1.4556,-0.5435 -2.7278,-1.2824 -3.8167,-2.2169c-1.0889,-0.9344 -1.95,-2.0262 -2.5833,-3.2753c-0.6333,-1.2491 -0.95,-2.5793 -0.95,-3.9905c0,-1.4112 0.3167,-2.7413 0.95,-3.9904c0.6333,-1.2491 1.4944,-2.3409 2.5833,-3.2754c1.0889,-0.9344 2.3611,-1.6734 3.8167,-2.2169c1.4556,-0.5435 3.0056,-0.8152 4.65,-0.8152c1.4889,0 2.8889,0.2145 4.2,0.6436c1.3111,0.4291 2.4778,1.025 3.5,1.7878l1.7,-1.4589l1.4,1.2015l-1.7,1.4588c0.8,0.7629 1.4833,1.6878 2.05,2.7748c0.5667,1.087 0.85,2.3838 0.85,3.8903c0,1.4112 -0.3167,2.7414 -0.95,3.9905c-0.6333,1.2491 -1.4944,2.3409 -2.5833,3.2753c-1.0889,0.9345 -2.3611,1.6734 -3.8167,2.2169c-1.4556,0.5435 -3.0056,0.8153 -4.65,0.8153zM25,35.2837c2.7778,0 5.1389,-0.8344 7.0833,-2.503c1.9445,-1.6687 2.9167,-3.6949 2.9167,-6.0787c0,-2.3838 -0.9722,-4.41 -2.9167,-6.0786c-1.9444,-1.6687 -4.3055,-2.503 -7.0833,-2.503c-2.7778,0 -5.1389,0.8343 -7.0833,2.503c-1.9445,1.6686 -2.9167,3.6948 -2.9167,6.0786c0,2.3838 0.9722,4.41 2.9167,6.0787c1.9444,1.6686 4.3055,2.503 7.0833,2.503z"></path></g></g></svg>