<svg width="50" height="50" viewBox="0 0 50 50" fill="none" xmlns="http://www.w3.org/2000/svg">
<g id="palette">
<path id="Vector" d="M25 38.9999C23.0867 38.9999 21.2783 38.6324 19.575 37.8974C17.8717 37.1624 16.3842 36.159 15.1125 34.8874C13.8408 33.6157 12.8375 32.1282 12.1025 30.4249C11.3675 28.7215 11 26.9132 11 24.9999C11 23.0399 11.3733 21.2082 12.12 19.5049C12.8667 17.8015 13.8875 16.3199 15.1825 15.0599C16.4775 13.7999 17.9942 12.8082 19.7325 12.0849C21.4708 11.3615 23.3317 10.9999 25.315 10.9999C27.1583 10.9999 28.9083 11.309 30.565 11.9274C32.2217 12.5457 33.6742 13.4032 34.9225 14.4999C36.1708 15.5965 37.1625 16.8974 37.8975 18.4024C38.6325 19.9074 39 21.5582 39 23.3549C39 25.8749 38.265 27.864 36.795 29.3224C35.325 30.7807 33.3767 31.5099 30.95 31.5099H28.325C27.905 31.5099 27.5433 31.6732 27.24 31.9999C26.9367 32.3265 26.785 32.6882 26.785 33.0849C26.785 33.5515 26.9542 33.9949 27.2925 34.4149C27.6308 34.8349 27.8 35.3365 27.8 35.9199C27.8 36.5265 27.5142 37.1915 26.9425 37.9149C26.3708 38.6382 25.7233 38.9999 25 38.9999ZM16.845 25.9099C17.3117 25.9099 17.72 25.7349 18.07 25.3849C18.42 25.0349 18.595 24.6265 18.595 24.1599C18.595 23.6932 18.42 23.2849 18.07 22.9349C17.72 22.5849 17.3117 22.4099 16.845 22.4099C16.3783 22.4099 15.97 22.5849 15.62 22.9349C15.27 23.2849 15.095 23.6932 15.095 24.1599C15.095 24.6265 15.27 25.0349 15.62 25.3849C15.97 25.7349 16.3783 25.9099 16.845 25.9099ZM21.255 19.9599C21.7217 19.9599 22.13 19.7849 22.48 19.4349C22.83 19.0849 23.005 18.6765 23.005 18.2099C23.005 17.7432 22.83 17.3349 22.48 16.9849C22.13 16.6349 21.7217 16.4599 21.255 16.4599C20.7883 16.4599 20.38 16.6349 20.03 16.9849C19.68 17.3349 19.505 17.7432 19.505 18.2099C19.505 18.6765 19.68 19.0849 20.03 19.4349C20.38 19.7849 20.7883 19.9599 21.255 19.9599ZM28.745 19.9599C29.2117 19.9599 29.62 19.7849 29.97 19.4349C30.32 19.0849 30.495 18.6765 30.495 18.2099C30.495 17.7432 30.32 17.3349 29.97 16.9849C29.62 16.6349 29.2117 16.4599 28.745 16.4599C28.2783 16.4599 27.87 16.6349 27.52 16.9849C27.17 17.3349 26.995 17.7432 26.995 18.2099C26.995 18.6765 27.17 19.0849 27.52 19.4349C27.87 19.7849 28.2783 19.9599 28.745 19.9599ZM33.33 25.9099C33.7967 25.9099 34.205 25.7349 34.555 25.3849C34.905 25.0349 35.08 24.6265 35.08 24.1599C35.08 23.6932 34.905 23.2849 34.555 22.9349C34.205 22.5849 33.7967 22.4099 33.33 22.4099C32.8633 22.4099 32.455 22.5849 32.105 22.9349C31.755 23.2849 31.58 23.6932 31.58 24.1599C31.58 24.6265 31.755 25.0349 32.105 25.3849C32.455 25.7349 32.8633 25.9099 33.33 25.9099Z" fill="white"/>
</g>
</svg>
