<svg width="26" height="26" viewBox="0 0 26 26" fill="none" xmlns="http://www.w3.org/2000/svg">
<g id="photo_camera">
<path id="Vector" d="M12.9864 18.7688C14.2954 18.7688 15.3923 18.3264 16.277 17.4417C17.1618 16.5569 17.6041 15.4601 17.6041 14.151C17.6041 12.842 17.1618 11.7497 16.277 10.874C15.3923 9.99826 14.2954 9.56042 12.9864 9.56042C11.6774 9.56042 10.585 9.99826 9.70933 10.874C8.83364 11.7497 8.39579 12.842 8.39579 14.151C8.39579 15.4601 8.83364 16.5569 9.70933 17.4417C10.585 18.3264 11.6774 18.7688 12.9864 18.7688ZM12.9864 17.1438C12.1288 17.1438 11.4201 16.8594 10.8604 16.2906C10.3007 15.7219 10.0208 15.0087 10.0208 14.151C10.0208 13.2934 10.3007 12.5847 10.8604 12.025C11.4201 11.4653 12.1288 11.1854 12.9864 11.1854C13.8441 11.1854 14.5573 11.4653 15.126 12.025C15.6947 12.5847 15.9791 13.2934 15.9791 14.151C15.9791 15.0087 15.6947 15.7219 15.126 16.2906C14.5573 16.8594 13.8441 17.1438 12.9864 17.1438ZM3.79163 22.75C3.35829 22.75 2.97913 22.5875 2.65413 22.2625C2.32913 21.9375 2.16663 21.5583 2.16663 21.125V7.23125C2.16663 6.81597 2.32913 6.44132 2.65413 6.10729C2.97913 5.77326 3.35829 5.60625 3.79163 5.60625H7.77288L9.74996 3.25H16.25L18.227 5.60625H22.2083C22.6236 5.60625 22.9982 5.77326 23.3323 6.10729C23.6663 6.44132 23.8333 6.81597 23.8333 7.23125V21.125C23.8333 21.5583 23.6663 21.9375 23.3323 22.2625C22.9982 22.5875 22.6236 22.75 22.2083 22.75H3.79163ZM3.79163 21.125H22.2083V7.23125H17.4687L15.4916 4.875H10.5083L8.53121 7.23125H3.79163V21.125Z" fill="white"/>
</g>
</svg>
