<svg width="31" height="30" viewBox="0 0 31 30" fill="none" xmlns="http://www.w3.org/2000/svg">
<g id="chat">
<path id="Vector" d="M11.15 13.925C11.4333 13.925 11.6708 13.8292 11.8625 13.6375C12.0542 13.4458 12.15 13.2083 12.15 12.925C12.15 12.6417 12.0542 12.4042 11.8625 12.2125C11.6708 12.0208 11.4333 11.925 11.15 11.925C10.8667 11.925 10.6292 12.0208 10.4375 12.2125C10.2458 12.4042 10.15 12.6417 10.15 12.925C10.15 13.2083 10.2458 13.4458 10.4375 13.6375C10.6292 13.8292 10.8667 13.925 11.15 13.925ZM15.575 13.925C15.8583 13.925 16.0958 13.8292 16.2875 13.6375C16.4792 13.4458 16.575 13.2083 16.575 12.925C16.575 12.6417 16.4792 12.4042 16.2875 12.2125C16.0958 12.0208 15.8583 11.925 15.575 11.925C15.2917 11.925 15.0542 12.0208 14.8625 12.2125C14.6708 12.4042 14.575 12.6417 14.575 12.925C14.575 13.2083 14.6708 13.4458 14.8625 13.6375C15.0542 13.8292 15.2917 13.925 15.575 13.925ZM19.825 13.925C20.1083 13.925 20.3458 13.8292 20.5375 13.6375C20.7292 13.4458 20.825 13.2083 20.825 12.925C20.825 12.6417 20.7292 12.4042 20.5375 12.2125C20.3458 12.0208 20.1083 11.925 19.825 11.925C19.5417 11.925 19.3042 12.0208 19.1125 12.2125C18.9208 12.4042 18.825 12.6417 18.825 12.925C18.825 13.2083 18.9208 13.4458 19.1125 13.6375C19.3042 13.8292 19.5417 13.925 19.825 13.925ZM5.5 25V6.5C5.5 6.1 5.65 5.75 5.95 5.45C6.25 5.15 6.6 5 7 5H24C24.4 5 24.75 5.15 25.05 5.45C25.35 5.75 25.5 6.1 25.5 6.5V19.5C25.5 19.9 25.35 20.25 25.05 20.55C24.75 20.85 24.4 21 24 21H9.5L5.5 25ZM8.85 19.5H24V6.5H7V21.5L8.85 19.5Z" fill="white"/>
</g>
</svg>
