<svg width="50" height="50" viewBox="0 0 50 50" fill="none" xmlns="http://www.w3.org/2000/svg">
<g id="play_circle">
<path id="Vector" d="M21.3625 30.8749L31.375 24.4999L21.3625 18.1249V30.8749ZM25 39.4999C22.95 39.4999 21.0125 39.1061 19.1875 38.3186C17.3625 37.5311 15.7688 36.4561 14.4062 35.0936C13.0438 33.7311 11.9688 32.1374 11.1813 30.3124C10.3938 28.4874 10 26.5499 10 24.4999C10 22.4249 10.3938 20.4749 11.1813 18.6499C11.9688 16.8249 13.0438 15.2374 14.4062 13.8874C15.7688 12.5374 17.3625 11.4686 19.1875 10.6811C21.0125 9.89363 22.95 9.49988 25 9.49988C27.075 9.49988 29.025 9.89363 30.85 10.6811C32.675 11.4686 34.2625 12.5374 35.6125 13.8874C36.9625 15.2374 38.0313 16.8249 38.8188 18.6499C39.6063 20.4749 40 22.4249 40 24.4999C40 26.5499 39.6063 28.4874 38.8188 30.3124C38.0313 32.1374 36.9625 33.7311 35.6125 35.0936C34.2625 36.4561 32.675 37.5311 30.85 38.3186C29.025 39.1061 27.075 39.4999 25 39.4999Z" fill="white"/>
</g>
</svg>
