<svg width="30" height="30" viewBox="0 0 30 30" fill="none" xmlns="http://www.w3.org/2000/svg">
<g id="phone">
<path id="Vector" d="M22.875 24C20.9417 24 18.9708 23.5333 16.9625 22.6C14.9542 21.6667 13.0917 20.3417 11.375 18.625C9.65833 16.9083 8.33333 15.0458 7.4 13.0375C6.46667 11.0292 6 9.05833 6 7.125C6 6.80833 6.10833 6.54167 6.325 6.325C6.54167 6.10833 6.80833 6 7.125 6H10.625C10.8583 6 11.0583 6.08333 11.225 6.25C11.3917 6.41667 11.5083 6.625 11.575 6.875L12.25 10.025C12.2833 10.2583 12.2792 10.4708 12.2375 10.6625C12.1958 10.8542 12.1083 11.0167 11.975 11.15L9.475 13.675C9.90833 14.4083 10.3667 15.0917 10.85 15.725C11.3333 16.3583 11.8667 16.9583 12.45 17.525C13.0667 18.1583 13.7167 18.7375 14.4 19.2625C15.0833 19.7875 15.8 20.25 16.55 20.65L18.925 18.2C19.0917 18.0167 19.2833 17.8917 19.5 17.825C19.7167 17.7583 19.9333 17.7417 20.15 17.775L23.125 18.425C23.375 18.4917 23.5833 18.625 23.75 18.825C23.9167 19.025 24 19.25 24 19.5V22.875C24 23.1917 23.8917 23.4583 23.675 23.675C23.4583 23.8917 23.1917 24 22.875 24Z" fill="#3C3C3C"/>
</g>
</svg>
