<svg width="42" height="42" viewBox="0 0 42 42" fill="none" xmlns="http://www.w3.org/2000/svg">
<g id="person">
<rect width="42" height="42" rx="21" fill="#DCE7FF"/>
<path id="Vector" d="M21 20.2126C19.7625 20.2126 18.75 19.8293 17.9625 19.0628C17.175 18.2963 16.7812 17.3108 16.7812 16.1063C16.7812 14.9018 17.175 13.9163 17.9625 13.1498C18.75 12.3833 19.7625 12 21 12C22.2375 12 23.25 12.3833 24.0375 13.1498C24.825 13.9163 25.2188 14.9018 25.2188 16.1063C25.2188 17.3108 24.825 18.2963 24.0375 19.0628C23.25 19.8293 22.2375 20.2126 21 20.2126ZM12 29V26.4267C12 25.7332 12.1781 25.1401 12.5344 24.6473C12.8906 24.1546 13.35 23.7805 13.9125 23.525C15.1688 22.9775 16.3734 22.5668 17.5266 22.2931C18.6797 22.0193 19.8375 21.8824 21 21.8824C22.1625 21.8824 23.3156 22.0239 24.4594 22.3068C25.6031 22.5896 26.8024 22.9975 28.0572 23.5303C28.644 23.7881 29.1146 24.1619 29.4687 24.6517C29.8229 25.1416 30 25.7332 30 26.4267V29H12ZM13.6875 27.3575H28.3125V26.4267C28.3125 26.1347 28.2234 25.8564 28.0453 25.5918C27.8672 25.3272 27.6469 25.131 27.3844 25.0032C26.1844 24.4375 25.0875 24.0497 24.0938 23.8398C23.1 23.6299 22.0687 23.525 21 23.525C19.9312 23.525 18.8906 23.6299 17.8781 23.8398C16.8656 24.0497 15.7687 24.4375 14.5875 25.0032C14.325 25.131 14.1094 25.3272 13.9406 25.5918C13.7719 25.8564 13.6875 26.1347 13.6875 26.4267V27.3575ZM21 18.57C21.7312 18.57 22.3359 18.3374 22.8141 17.872C23.2922 17.4066 23.5312 16.818 23.5312 16.1063C23.5312 15.3945 23.2922 14.806 22.8141 14.3406C22.3359 13.8752 21.7312 13.6425 21 13.6425C20.2688 13.6425 19.6641 13.8752 19.1859 14.3406C18.7078 14.806 18.4688 15.3945 18.4688 16.1063C18.4688 16.818 18.7078 17.4066 19.1859 17.872C19.6641 18.3374 20.2688 18.57 21 18.57Z" fill="white"/>
</g>
</svg>
