<svg width="31" height="30" viewBox="0 0 31 30" fill="none" xmlns="http://www.w3.org/2000/svg">
<g id="phone">
<path id="Vector" d="M23.375 24C21.4417 24 19.4708 23.5333 17.4625 22.6C15.4542 21.6667 13.5917 20.3417 11.875 18.625C10.1583 16.9083 8.83333 15.0458 7.9 13.0375C6.96667 11.0292 6.5 9.05833 6.5 7.125C6.5 6.80833 6.60833 6.54167 6.825 6.325C7.04167 6.10833 7.30833 6 7.625 6H11.125C11.3583 6 11.5583 6.08333 11.725 6.25C11.8917 6.41667 12.0083 6.625 12.075 6.875L12.75 10.025C12.7833 10.2583 12.7792 10.4708 12.7375 10.6625C12.6958 10.8542 12.6083 11.0167 12.475 11.15L9.975 13.675C10.4083 14.4083 10.8667 15.0917 11.35 15.725C11.8333 16.3583 12.3667 16.9583 12.95 17.525C13.5667 18.1583 14.2167 18.7375 14.9 19.2625C15.5833 19.7875 16.3 20.25 17.05 20.65L19.425 18.2C19.5917 18.0167 19.7833 17.8917 20 17.825C20.2167 17.7583 20.4333 17.7417 20.65 17.775L23.625 18.425C23.875 18.4917 24.0833 18.625 24.25 18.825C24.4167 19.025 24.5 19.25 24.5 19.5V22.875C24.5 23.1917 24.3917 23.4583 24.175 23.675C23.9583 23.8917 23.6917 24 23.375 24Z" fill="white"/>
</g>
</svg>
