<svg width="26" height="26" viewBox="0 0 26 26" fill="none" xmlns="http://www.w3.org/2000/svg">
<g id="person_add">
<path id="Vector" d="M18.6818 13.6588V10.7043H15.7273V9.34067H18.6818V6.38612H20.0455V9.34067H23V10.7043H20.0455V13.6588H18.6818ZM10.2727 11.8179C9.27273 11.8179 8.45455 11.4998 7.81818 10.8634C7.18182 10.227 6.86364 9.40885 6.86364 8.40885C6.86364 7.40885 7.18182 6.59067 7.81818 5.9543C8.45455 5.31794 9.27273 4.99976 10.2727 4.99976C11.2727 4.99976 12.0909 5.31794 12.7273 5.9543C13.3636 6.59067 13.6818 7.40885 13.6818 8.40885C13.6818 9.40885 13.3636 10.227 12.7273 10.8634C12.0909 11.4998 11.2727 11.8179 10.2727 11.8179ZM3 20.0225V16.977C3 16.4467 3.13258 15.9657 3.39773 15.5338C3.66288 15.102 4.04545 14.7801 4.54545 14.5679C5.68182 14.0679 6.69195 13.7157 7.57586 13.5111C8.45979 13.3066 9.35752 13.2043 10.269 13.2043C11.1806 13.2043 12.0758 13.3066 12.9545 13.5111C13.8333 13.7157 14.8409 14.0679 15.9773 14.5679C16.4773 14.7952 16.8636 15.121 17.1364 15.5452C17.4091 15.9695 17.5455 16.4467 17.5455 16.977V20.0225H3ZM4.36364 18.6588H16.1818V16.977C16.1818 16.7346 16.1136 16.5035 15.9773 16.2838C15.8409 16.0642 15.6591 15.9013 15.4318 15.7952C14.3561 15.2952 13.447 14.9657 12.7045 14.8066C11.9621 14.6475 11.1515 14.5679 10.2727 14.5679C9.39394 14.5679 8.57955 14.6475 7.82955 14.8066C7.07955 14.9657 6.16667 15.2952 5.09091 15.7952C4.86364 15.9013 4.68561 16.0642 4.55682 16.2838C4.42803 16.5035 4.36364 16.7346 4.36364 16.977V18.6588ZM10.2727 10.4543C10.8636 10.4543 11.3523 10.2611 11.7386 9.87476C12.125 9.48839 12.3182 8.99976 12.3182 8.40885C12.3182 7.81794 12.125 7.3293 11.7386 6.94294C11.3523 6.55657 10.8636 6.36339 10.2727 6.36339C9.68182 6.36339 9.19318 6.55657 8.80682 6.94294C8.42045 7.3293 8.22727 7.81794 8.22727 8.40885C8.22727 8.99976 8.42045 9.48839 8.80682 9.87476C9.19318 10.2611 9.68182 10.4543 10.2727 10.4543Z" fill="white"/>
</g>
</svg>
