<svg width="30" height="31" viewBox="0 0 30 31" fill="none" xmlns="http://www.w3.org/2000/svg">
<g id="phone_fill">
<path id="Vector" d="M22.875 24.2075C20.9417 24.2075 18.9708 23.7409 16.9625 22.8075C14.9542 21.8742 13.0917 20.5492 11.375 18.8325C9.65833 17.1159 8.33333 15.2534 7.4 13.245C6.46667 11.2367 6 9.26585 6 7.33252C6 7.01585 6.10833 6.74919 6.325 6.53252C6.54167 6.31585 6.80833 6.20752 7.125 6.20752H10.625C10.8583 6.20752 11.0583 6.29085 11.225 6.45752C11.3917 6.62419 11.5083 6.83252 11.575 7.08252L12.25 10.2325C12.2833 10.4659 12.2792 10.6784 12.2375 10.87C12.1958 11.0617 12.1083 11.2242 11.975 11.3575L9.475 13.8825C9.90833 14.6159 10.3667 15.2992 10.85 15.9325C11.3333 16.5659 11.8667 17.1659 12.45 17.7325C13.0667 18.3659 13.7167 18.945 14.4 19.47C15.0833 19.995 15.8 20.4575 16.55 20.8575L18.925 18.4075C19.0917 18.2242 19.2833 18.0992 19.5 18.0325C19.7167 17.9659 19.9333 17.9492 20.15 17.9825L23.125 18.6325C23.375 18.6992 23.5833 18.8325 23.75 19.0325C23.9167 19.2325 24 19.4575 24 19.7075V23.0825C24 23.3992 23.8917 23.6659 23.675 23.8825C23.4583 24.0992 23.1917 24.2075 22.875 24.2075Z" fill="white"/>
</g>
</svg>
