<svg width="30" height="30" viewBox="0 0 30 30" fill="none" xmlns="http://www.w3.org/2000/svg">
<g id="phone">
<path id="Vector" d="M22.875 24C20.9417 24 18.9708 23.5333 16.9625 22.6C14.9542 21.6667 13.0917 20.3417 11.375 18.625C9.65833 16.9083 8.33333 15.0458 7.4 13.0375C6.46667 11.0292 6 9.05833 6 7.125C6 6.80357 6.10714 6.53571 6.32142 6.32142C6.53571 6.10714 6.80357 6 7.125 6H10.625C10.8583 6 11.0583 6.08333 11.225 6.25C11.3917 6.41667 11.5083 6.625 11.575 6.875L12.2482 10.016C12.2827 10.2553 12.2792 10.4708 12.2375 10.6625C12.1958 10.8542 12.1064 11.0186 11.9693 11.1557L9.475 13.675C9.90833 14.4083 10.3667 15.0917 10.85 15.725C11.3333 16.3583 11.8667 16.9583 12.45 17.525C13.0667 18.1583 13.7167 18.7375 14.4 19.2625C15.0833 19.7875 15.8 20.25 16.55 20.65L18.925 18.2C19.0917 18.0167 19.2846 17.8917 19.5038 17.825C19.723 17.7583 19.9384 17.7417 20.15 17.775L23.125 18.425C23.375 18.4917 23.5833 18.6254 23.75 18.8261C23.9167 19.0268 24 19.2515 24 19.5V22.875C24 23.1964 23.8929 23.4643 23.6786 23.6786C23.4643 23.8929 23.1964 24 22.875 24ZM8.725 12.3L10.75 10.25L10.175 7.5H7.5C7.53333 8.2 7.64583 8.9375 7.8375 9.7125C8.02917 10.4875 8.325 11.35 8.725 12.3ZM17.95 21.375C18.6333 21.6917 19.375 21.95 20.175 22.15C20.975 22.35 21.75 22.4667 22.5 22.5V19.825L19.925 19.3L17.95 21.375Z" fill="#3C3C3C"/>
</g>
</svg>
