<svg width="30" height="31" viewBox="0 0 30 31" fill="none" xmlns="http://www.w3.org/2000/svg">
<g id="phone">
<path id="Vector" d="M22.875 24.2075C20.9417 24.2075 18.9708 23.7409 16.9625 22.8075C14.9542 21.8742 13.0917 20.5492 11.375 18.8325C9.65833 17.1159 8.33333 15.2534 7.4 13.245C6.46667 11.2367 6 9.26585 6 7.33252C6 7.01109 6.10714 6.74323 6.32142 6.52894C6.53571 6.31466 6.80357 6.20752 7.125 6.20752H10.625C10.8583 6.20752 11.0583 6.29085 11.225 6.45752C11.3917 6.62419 11.5083 6.83252 11.575 7.08252L12.2482 10.2235C12.2827 10.4629 12.2792 10.6784 12.2375 10.87C12.1958 11.0617 12.1064 11.2261 11.9693 11.3632L9.475 13.8825C9.90833 14.6159 10.3667 15.2992 10.85 15.9325C11.3333 16.5659 11.8667 17.1659 12.45 17.7325C13.0667 18.3659 13.7167 18.945 14.4 19.47C15.0833 19.995 15.8 20.4575 16.55 20.8575L18.925 18.4075C19.0917 18.2242 19.2846 18.0992 19.5038 18.0325C19.723 17.9659 19.9384 17.9492 20.15 17.9825L23.125 18.6325C23.375 18.6992 23.5833 18.8329 23.75 19.0336C23.9167 19.2344 24 19.459 24 19.7075V23.0825C24 23.404 23.8929 23.6718 23.6786 23.8861C23.4643 24.1004 23.1964 24.2075 22.875 24.2075ZM8.725 12.5075L10.75 10.4575L10.175 7.70752H7.5C7.53333 8.40752 7.64583 9.14502 7.8375 9.92002C8.02917 10.695 8.325 11.5575 8.725 12.5075ZM17.95 21.5825C18.6333 21.8992 19.375 22.1575 20.175 22.3575C20.975 22.5575 21.75 22.6742 22.5 22.7075V20.0325L19.925 19.5075L17.95 21.5825Z" fill="white"/>
</g>
</svg>
