<svg width="24" height="29" viewBox="0 0 24 29" fill="none" xmlns="http://www.w3.org/2000/svg">
<path id="Union" fill-rule="evenodd" clip-rule="evenodd" d="M12.72 0.72C12.72 0.322355 12.3977 0 12 0C11.6024 0 11.28 0.322355 11.28 0.72V5.92L5.28 5.92C2.36394 5.92 9.95575e-07 8.28393 0 11.2V22.9257C0 25.8418 2.36394 28.2057 5.28 28.2057L18.72 28.2057C21.6361 28.2057 24 25.8418 24 22.9257L24 11.2C24 8.28394 21.6361 5.92 18.72 5.92L12.72 5.92V0.72ZM17.9886 21.3486C18.7839 21.3486 19.4286 20.7039 19.4286 19.9086V11.36C19.4286 10.5647 18.7839 9.92 17.9886 9.92L5.43999 9.92C4.6447 9.92 3.99999 10.5647 3.99999 11.36L3.99999 19.9086C3.99999 20.7039 4.6447 21.3486 5.43999 21.3486L17.9886 21.3486ZM8.42286 24.2057C8.42286 23.8081 8.74521 23.4857 9.14286 23.4857H12.1681H14.8571C15.2548 23.4857 15.5771 23.8081 15.5771 24.2057C15.5771 24.6034 15.2548 24.9257 14.8571 24.9257H12.1681H9.14286C8.74521 24.9257 8.42286 24.6034 8.42286 24.2057Z" fill="white"/>
</svg>
