<svg version="1.1" xmlns="http://www.w3.org/2000/svg" xmlns:xlink="http://www.w3.org/1999/xlink" width="50" height="50" viewBox="0,0,256,256"><g fill="#858585" fill-rule="nonzero" stroke="none" stroke-width="1" stroke-linecap="butt" stroke-linejoin="miter" stroke-miterlimit="10" stroke-dasharray="" stroke-dashoffset="0" font-family="none" font-weight="none" font-size="none" text-anchor="none" style="mix-blend-mode: normal"><g transform="translate(0,1.024) scale(5.12,5.12)"><path d="M29.8,35.6c-0.66,0 -1.225,-0.235 -1.695,-0.705c-0.47,-0.47 -0.705,-1.035 -0.705,-1.695v-4.8c0,-0.66 0.235,-1.225 0.705,-1.695c0.47,-0.47 1.035,-0.705 1.695,-0.705h4.8c0.66,0 1.225,0.235 1.695,0.705c0.47,0.47 0.705,1.035 0.705,1.695v4.8c0,0.66 -0.235,1.225 -0.705,1.695c-0.47,0.47 -1.035,0.705 -1.695,0.705zM29.2,33.8h6v-6h-6zM13,31.7v-1.8h10.8v1.8zM29.8,23.6c-0.66,0 -1.225,-0.235 -1.695,-0.705c-0.47,-0.47 -0.705,-1.035 -0.705,-1.695v-4.8c0,-0.66 0.235,-1.225 0.705,-1.695c0.47,-0.47 1.035,-0.705 1.695,-0.705h4.8c0.66,0 1.225,0.235 1.695,0.705c0.47,0.47 0.705,1.035 0.705,1.695v4.8c0,0.66 -0.235,1.225 -0.705,1.695c-0.47,0.47 -1.035,0.705 -1.695,0.705zM29.2,21.8h6v-6h-6zM13,19.7v-1.8h10.8v1.8z"></path></g></g></svg>