<svg width="50" height="50" viewBox="0 0 50 50" fill="none" xmlns="http://www.w3.org/2000/svg">
<path d="M22.24 37L21.64 33.22C21.26 33.08 20.86 32.89 20.44 32.65C20.02 32.41 19.65 32.16 19.33 31.9L15.79 33.52L13 28.6L16.24 26.23C16.2 26.05 16.175 25.845 16.165 25.615C16.155 25.385 16.15 25.18 16.15 25C16.15 24.82 16.155 24.615 16.165 24.385C16.175 24.155 16.2 23.95 16.24 23.77L13 21.4L15.79 16.48L19.33 18.1C19.65 17.84 20.02 17.59 20.44 17.35C20.86 17.11 21.26 16.93 21.64 16.81L22.24 13H27.76L28.36 16.78C28.74 16.92 29.145 17.105 29.575 17.335C30.005 17.565 30.37 17.82 30.67 18.1L34.21 16.48L37 21.4L33.76 23.71C33.8 23.91 33.825 24.125 33.835 24.355C33.845 24.585 33.85 24.8 33.85 25C33.85 25.2 33.845 25.41 33.835 25.63C33.825 25.85 33.8 26.06 33.76 26.26L37 28.6L34.21 33.52L30.67 31.9C30.35 32.16 29.985 32.415 29.575 32.665C29.165 32.915 28.76 33.1 28.36 33.22L27.76 37H22.24ZM25 28.9C26.08 28.9 27 28.52 27.76 27.76C28.52 27 28.9 26.08 28.9 25C28.9 23.92 28.52 23 27.76 22.24C27 21.48 26.08 21.1 25 21.1C23.92 21.1 23 21.48 22.24 22.24C21.48 23 21.1 23.92 21.1 25C21.1 26.08 21.48 27 22.24 27.76C23 28.52 23.92 28.9 25 28.9ZM25 27.1C24.42 27.1 23.925 26.895 23.515 26.485C23.105 26.075 22.9 25.58 22.9 25C22.9 24.42 23.105 23.925 23.515 23.515C23.925 23.105 24.42 22.9 25 22.9C25.58 22.9 26.075 23.105 26.485 23.515C26.895 23.925 27.1 24.42 27.1 25C27.1 25.58 26.895 26.075 26.485 26.485C26.075 26.895 25.58 27.1 25 27.1ZM23.68 35.2H26.32L26.74 31.84C27.4 31.68 28.025 31.43 28.615 31.09C29.205 30.75 29.74 30.34 30.22 29.86L33.4 31.24L34.6 29.08L31.78 27.01C31.86 26.67 31.925 26.335 31.975 26.005C32.025 25.675 32.05 25.34 32.05 25C32.05 24.66 32.03 24.325 31.99 23.995C31.95 23.665 31.88 23.33 31.78 22.99L34.6 20.92L33.4 18.76L30.22 20.14C29.76 19.62 29.24 19.185 28.66 18.835C28.08 18.485 27.44 18.26 26.74 18.16L26.32 14.8H23.68L23.26 18.16C22.58 18.3 21.945 18.54 21.355 18.88C20.765 19.22 20.24 19.64 19.78 20.14L16.6 18.76L15.4 20.92L18.22 22.99C18.14 23.33 18.075 23.665 18.025 23.995C17.975 24.325 17.95 24.66 17.95 25C17.95 25.34 17.975 25.675 18.025 26.005C18.075 26.335 18.14 26.67 18.22 27.01L15.4 29.08L16.6 31.24L19.78 29.86C20.26 30.34 20.795 30.75 21.385 31.09C21.975 31.43 22.6 31.68 23.26 31.84L23.68 35.2Z" fill="#D9D9D9"/>
</svg>
