<svg width="30" height="30" viewBox="0 0 30 30" fill="none" xmlns="http://www.w3.org/2000/svg">
<g id="chat">
<path id="Vector" d="M10.65 13.925C10.9333 13.925 11.1708 13.8292 11.3625 13.6375C11.5542 13.4458 11.65 13.2083 11.65 12.925C11.65 12.6417 11.5542 12.4042 11.3625 12.2125C11.1708 12.0208 10.9333 11.925 10.65 11.925C10.3667 11.925 10.1292 12.0208 9.9375 12.2125C9.74583 12.4042 9.65 12.6417 9.65 12.925C9.65 13.2083 9.74583 13.4458 9.9375 13.6375C10.1292 13.8292 10.3667 13.925 10.65 13.925ZM15.075 13.925C15.3583 13.925 15.5958 13.8292 15.7875 13.6375C15.9792 13.4458 16.075 13.2083 16.075 12.925C16.075 12.6417 15.9792 12.4042 15.7875 12.2125C15.5958 12.0208 15.3583 11.925 15.075 11.925C14.7917 11.925 14.5542 12.0208 14.3625 12.2125C14.1708 12.4042 14.075 12.6417 14.075 12.925C14.075 13.2083 14.1708 13.4458 14.3625 13.6375C14.5542 13.8292 14.7917 13.925 15.075 13.925ZM19.325 13.925C19.6083 13.925 19.8458 13.8292 20.0375 13.6375C20.2292 13.4458 20.325 13.2083 20.325 12.925C20.325 12.6417 20.2292 12.4042 20.0375 12.2125C19.8458 12.0208 19.6083 11.925 19.325 11.925C19.0417 11.925 18.8042 12.0208 18.6125 12.2125C18.4208 12.4042 18.325 12.6417 18.325 12.925C18.325 13.2083 18.4208 13.4458 18.6125 13.6375C18.8042 13.8292 19.0417 13.925 19.325 13.925ZM5 25V6.5C5 6.1 5.15 5.75 5.45 5.45C5.75 5.15 6.1 5 6.5 5H23.5C23.9 5 24.25 5.15 24.55 5.45C24.85 5.75 25 6.1 25 6.5V19.5C25 19.9 24.85 20.25 24.55 20.55C24.25 20.85 23.9 21 23.5 21H9L5 25Z" fill="#3C3C3C"/>
</g>
</svg>
